<?xml version="1.0" encoding="utf-8" ?><svg xmlns="http://www.w3.org/2000/svg" xmlns:xlink="http://www.w3.org/1999/xlink" width="1024" height="1024" viewBox="0 0 1024 1024"><path fill="#57ADA6" d="M332.774 144.747L661.69 144.817L749.398 144.975C762.665 144.971 790.43 144.238 802.512 146.295C822.123 149.776 840.214 159.134 854.389 173.127C873.694 192.004 882.287 215.978 882.502 242.619L882.465 627.564L882.484 739.57L882.518 771.888C882.523 781.006 882.807 789.92 881.407 798.954C878.29 819.286 868.813 838.109 854.336 852.722C843.306 863.836 826.909 873.179 811.751 877.087C794.752 881.469 773.169 880.255 755.18 880.293L694.75 880.315L367.91 880.186L274.183 880.275C261.717 880.264 249.249 880.17 236.783 880.159C213.197 880.137 188.641 869.634 171.79 853.03C153.73 835.353 143.546 811.15 143.533 785.879L143.534 394.024L143.526 283.355L143.427 251.24C143.403 242.369 143.133 233.549 144.529 224.764C147.723 204.664 157.868 186.895 172.086 172.481C187.327 157.33 207.291 147.844 228.665 145.598C240.098 144.399 260.984 145.016 273.311 145.002L332.774 144.747Z"/><path fill="#2B6192" d="M282.758 205.75L624.5 205.677L729.329 205.588L761.764 205.614C778.638 205.668 793.457 204.803 806.775 216.98C815.852 225.28 821.396 237.275 821.387 249.577C821.289 261.256 816.56 272.419 808.24 280.615C795.596 292.939 781.341 292.596 765.101 292.405L742.375 292.166L401.604 292.129L293.515 292.152L263.734 292.201C256.484 292.248 249.287 292.561 242.061 291.799C206.431 288.043 191.664 244.195 216.471 218.86C229.393 205.663 243.213 205.817 260.353 205.836C267.821 205.864 275.29 205.836 282.758 205.75Z"/><path fill="#2B6192" d="M405.681 351.201C410.357 350.656 424.428 350.747 429.475 350.86C448.035 351.277 463.768 347.992 479.339 360.043C487.738 366.633 493.124 376.333 494.276 386.947C495.295 395.632 495.459 441.354 493.624 449.297C492.254 455.127 489.594 460.577 485.842 465.245C478.204 474.833 467.984 478.9 456.118 480.317C452.06 480.781 441.161 480.605 436.402 480.513C424.42 480.057 411.613 481.69 399.834 479.374C381.709 475.81 368.761 460.846 367.225 442.545C366.493 433.832 366.574 424.824 366.637 416.276C366.768 398.627 364.508 380.351 376.98 365.975C384.703 356.751 393.862 352.365 405.681 351.201Z"/><path fill="#2B6192" d="M255.394 350.743L276.988 350.558C293.384 350.446 306.655 350.626 319.389 362.59C338.785 380.721 330.661 410.793 332.125 434.486C333.243 452.586 323.266 471.084 305.598 477.084C296.873 480.046 291.13 480.067 282.085 480.245L259.863 480.122C242.951 480.044 230.755 480.286 217.469 467.946C200.426 452.115 205.033 430.9 204.421 410.149C203.901 392.52 202.971 377.193 216.323 363.755C228.192 351.809 239.533 351.011 255.394 350.743Z"/><path fill="#FDB204" d="M267.338 370.589C282.217 370.704 278.003 394.38 278.014 405.115C285.733 405.32 308.506 403.685 311.519 407.789C328.038 430.291 281.99 424.752 278.11 424.701C278.094 430.852 278.229 437.058 278.244 443.208C278.262 451.013 278.74 456.707 270.767 460.225C270.327 460.248 269.886 460.265 269.444 460.275C253.773 460.593 258.451 435.8 258.511 424.618C251.875 424.459 227.023 426.575 223.779 421.091C211.659 400.609 248.235 404.992 258.552 405.055C258.655 399.049 258.345 392.923 258.369 386.908C258.401 378.551 258.378 372.993 267.338 370.589Z"/><path fill="#2B6192" d="M581.807 350.74C602.907 350.759 629.9 346.629 645.272 362.423C658.855 376.378 658.198 389.843 658.272 407.422L658.438 431.272C658.499 447.525 656.56 461.22 642.725 471.731C632.475 479.518 622.504 480.457 610.125 480.469L588.423 480.495C571.95 480.493 557.693 480.56 544.855 468.567C527.757 452.593 533.395 433.552 532.42 412.928C531.245 388.076 532.265 364.097 559.26 353.765C567.278 350.696 573.433 350.917 581.807 350.74Z"/><path fill="#2B6192" d="M737.574 350.709C744.623 350.306 752.81 350.616 759.967 350.512C778.228 350.244 791.405 349.398 806.426 361.678C814.619 368.376 820.857 379.263 821.529 389.859C821.637 397.374 822.102 405.238 821.811 412.75C821.092 431.231 825.789 451.008 812.186 466.088C803.078 476.184 793.684 479.314 780.622 480.331C773.67 480.668 764.788 480.454 757.7 480.47C741.079 480.507 725.185 482.018 711.47 470.895C702.67 463.778 697.156 453.377 696.205 442.099C695.705 436.683 695.846 422.755 695.978 416.865C696.398 398.221 692.73 380.567 705.942 365.491C714.728 355.465 724.722 351.733 737.574 350.709Z"/><path fill="#FDB204" d="M727.52 389.712C748.089 388.861 769.446 389.864 790.063 389.855C802.693 389.849 804.368 407.34 791.017 408.793L749.538 408.858C742.041 408.879 734.959 408.903 727.138 408.711C718.892 408.508 715.655 400.338 719.565 393.644C721.048 391.106 724.644 390.107 727.52 389.712Z"/><path fill="#FDB204" d="M727.507 428.704C737.34 428.631 790.962 427.359 795.788 430.026C797.95 431.22 799.387 433.623 799.91 435.982C800.532 438.747 799.926 441.646 798.249 443.931C796.248 446.683 793.816 447.309 790.663 447.714C769.851 448.218 748.651 447.769 727.828 447.735C716.515 447.716 712.364 430.49 727.507 428.704Z"/><path fill="#FDB204" d="M241.524 683.184C249.825 682.543 261.096 682.899 269.662 682.859C277.313 682.823 290.037 682.492 297.097 683.697C302.223 684.531 307.137 686.359 311.563 689.077C320.253 694.513 328.574 705.961 330.15 715.545C331.967 726.597 332.47 765.086 330.715 774.861C329.739 780.4 327.67 785.688 324.629 790.419C317.351 801.883 307.943 806.725 295.028 809.525C287.142 810.41 244.054 810.347 236.89 808.801C230.88 807.535 225.232 804.935 220.361 801.194C197.953 784.012 205.585 758.205 204.071 734.24C202.425 708.187 214.102 686.832 241.524 683.184Z"/><path fill="#FDB204" d="M265.393 517.245L265.876 517.24C284.806 517.052 304.162 515.075 318.592 529.388C335.984 546.641 330.634 568.736 331.554 590.924C332.19 606.263 330.516 620.835 319.058 632.055C305.101 645.724 289.018 644.065 271.125 643.946C251.753 643.947 231.368 646.355 216.544 631.886C206.286 621.873 204.366 610.225 204.166 596.603C204.107 588.779 204.087 580.955 204.107 573.13C204.129 556.173 203.684 543.108 216.552 529.896C230.584 515.49 247.04 517.386 265.393 517.245Z"/><path fill="#2B6192" d="M572.118 682.695C580.173 682.286 588.4 682.393 596.47 682.433C613.945 682.518 628.478 680.245 643.052 691.964C660.689 706.147 658.384 725.375 658.508 745.75C658.437 763.364 660.531 781.026 648.119 795.517C640.112 804.864 631.195 808.742 619.121 809.84C610.929 810.421 601.846 810.244 593.57 810.15C577.696 809.972 562.066 811.679 548.791 801.165C540.062 794.251 534.137 784.833 532.917 773.467C532.151 758.187 532.699 742.628 532.519 727.344C532.223 702.127 547.297 685.393 572.118 682.695Z"/><path fill="#FDB204" d="M408.82 682.72C417.672 682.649 426.525 682.668 435.377 682.777C452.501 682.905 464.834 681.544 478.706 693.688C496.08 708.897 492.554 728.65 492.95 749.389C493.27 766.177 494.364 783.21 482.036 796.361C474.134 804.791 463.408 809.498 451.824 810.005L425.737 810.031C408.734 810.017 394.205 811.047 380.604 798.892C363.624 783.718 366.394 763.252 366.148 742.73C365.947 725.873 365.287 709.74 377.654 696.55C386.654 686.951 395.866 683.366 408.82 682.72Z"/><path fill="#FDB204" d="M410.875 517.232C418.988 517.1 427.102 517.047 435.217 517.074C452.116 517.092 465.717 516.316 479.303 528.418C496.403 543.651 492.264 563.816 492.927 584.401C493.465 601.067 493.876 617.795 481.621 630.732C472.502 640.359 462.455 643.468 449.401 643.92L424.165 644C407.834 644.037 393.327 644.996 380.128 633.322C362.685 618.105 367.23 597.824 366.124 578.094C364.298 545.531 373.004 518.771 410.875 517.232Z"/><path fill="#2B6192" d="M761.902 682.239C765.051 682.189 768.2 682.157 771.349 682.144C787.402 682.111 796.753 683.625 808.995 695.455C824.798 710.726 820.194 733.772 820.923 753.899C821.516 770.279 820.887 785.993 808.469 798.217C793.707 812.748 774.149 810.452 754.914 810.277C736.879 809.939 721.684 811.008 707.459 797.449C691.415 782.157 696.02 760.071 695.421 740.118C694.906 722.963 694.58 708.434 707.231 695.322C722.303 679.702 742.059 682.661 761.902 682.239Z"/><path fill="#FDB204" d="M759.158 727.745C768.921 727.71 776.9 735.528 777.063 745.29C777.225 755.053 769.512 763.133 759.752 763.423C753.325 763.614 747.292 760.332 743.961 754.832C740.629 749.332 740.515 742.465 743.661 736.857C746.807 731.249 752.728 727.768 759.158 727.745Z"/><path fill="#FDB204" d="M575.545 517.212L576.058 517.194C583.61 516.953 591.676 517.037 599.252 517.058C616.416 517.174 631.311 516.471 644.712 529.046C661.375 544.385 657.513 565.798 657.914 586.015C658.261 603.508 658.572 618.353 645.283 631.59C636.605 640.235 627.347 643.754 615.223 643.96L589.635 644.003C573.181 644.014 559.054 644.996 545.605 633.71C528.362 619.24 531.888 598.041 531.642 577.954C531.537 569.378 531.074 556.734 533.198 548.701C534.973 542.187 538.243 536.177 542.749 531.149C551.74 521.1 562.535 517.865 575.545 517.212Z"/><path fill="#2B6192" d="M737.499 517.729C745.619 517.551 754.006 517.672 762.124 517.637C778.94 517.592 793.005 516.39 806.499 528.179C823.914 543.395 820.623 563.84 820.89 584.603C821.104 601.268 821.976 617.45 809.822 630.523C801.447 639.533 792.111 643.261 779.977 643.796C769.065 643.758 733.671 644.361 725.257 642.244C719.164 640.705 713.537 637.705 708.864 633.504C692.1 618.607 695.83 598.136 695.389 577.963C695.017 560.916 693.816 544.401 706.124 530.962C714.885 521.396 724.786 518.299 737.499 517.729Z"/></svg>