<?xml version="1.0" encoding="utf-8"?>
<!-- Generator: Adobe Illustrator 26.0.1, SVG Export Plug-In . SVG Version: 6.00 Build 0)  -->
<svg version="1.1" id="圖層_1" xmlns="http://www.w3.org/2000/svg" xmlns:xlink="http://www.w3.org/1999/xlink" x="0px" y="0px"
	 viewBox="0 0 555.9 755.2" style="enable-background:new 0 0 555.9 755.2;" xml:space="preserve">
<style type="text/css">
	.st0{fill:#3E83A1;}
	.st1{fill:#1ACF9F;}
	.st2{fill:#FEB503;}
	.st3{fill:#E6E4E4;}
	.st4{fill:#FB3A4C;}
	.st5{fill:#E6E4E4;fill-opacity:0.9804;}
</style>
<path class="st0" d="M119.2,2.9c31-0.3,61.9-0.4,92.9-0.3l134.6,0l65.7,0c17,0,35.8-0.9,52.5,2.4c52.6,10.2,93,58,93.2,111.9
	c0.1,44.1,0,88.2,0,132.3l0.1,234.7l0,107c0,21.4,1.3,48.2-2.3,68.7c-7.9,45.6-46.1,84.3-91.6,92.8c-10.1,1.9-18.6,2.4-28.9,2.5
	l-204.2,0.1l-78.5,0.2c-16.9,0-42.5,0.8-58.3-2.2c-21.2-4.2-40.9-14.1-56.7-28.8c-22.9-21.2-36.4-50.6-37.5-81.8
	c-0.4-12.8-0.1-27.3,0-40.2l0-75l0-253.5l0.1-107.9l-0.1-34.6c0-10.5-0.3-20.6,1.4-31c3.9-23.7,13.9-43.3,30.3-60.7
	C49.8,20.5,73.3,8.1,99,4.2C105.8,3.2,112.3,3.1,119.2,2.9z M434.6,457.3c17.2-0.9,35.2-9.7,46.7-22.5c6.8-7.5,11.6-16.6,14.2-26.4
	c2.3-9.3,2.2-18.8,2.1-28.3c-0.2-20.6,0.3-41.3-0.2-61.9c-0.4-17-8.9-32.9-21.5-44c-8.5-7.3-18.6-12.4-29.5-14.8
	c-8.2-1.8-16.5-1.7-24.9-1.7c-21.8,0.2-43.7-0.2-65.6,0.2c0,0-0.1,0-0.1,0c-18.5,1.2-34.6,8.6-47.2,22.6
	c-21.3,23.8-15.4,54.1-16.2,83.7c-0.7,29.6-2.1,55.5,22.7,76.8c7.8,6.8,17.2,11.6,27.2,14.1c9.8,2.4,20.5,2.4,30.6,2.2
	C393.3,456.8,414.2,457.9,434.6,457.3z"/>
<path class="st1" d="M127,69.3l221.4,0.3l59.6-0.1c8.9,0,26.2-0.5,34.3,0.8c12,1.8,23.2,7.1,32.2,15.2
	c20.6,18.4,24.4,41.2,22.1,67.4c-3,34.2-29.7,58.6-63.5,60.2l-218,0.1l-62,0c-11.2,0-26.8,0.8-37.4-1c-31.9-5.6-53.7-32.7-54.1-64.8
	c-0.9-21,2.2-41.6,17.3-57.4C92.1,75.9,107.9,70,127,69.3z"/>
<path class="st2" d="M360.6,490.3c14.4-0.4,29.1-0.2,43.6-0.2c27.9,0,51.5-2.9,73.5,18c13.4,12.7,19.7,29.5,19.7,47.8
	c0.2,14.3,0,29,0.1,43.2c0.1,28.2,3,52.2-19,73.9c-14.5,14.4-28.4,19.3-48.8,19.6l-44.8,0c-13.1,0-32.3,1-44.6-2.2
	c-9.9-2.6-19-7.6-26.6-14.6c-13.4-12.1-20.7-29-21.1-47c-1.4-17.7,1.2-38.3-0.2-55.9c-2.9-37.3,10-68.5,48.1-80.2
	C347.3,490.8,353.3,490.6,360.6,490.3z"/>
<path class="st3" d="M358,604.7c12.4-0.7,27.5,0.1,40.2-0.2c11.9,0.1,24.2-0.4,36.1,0.1c9.9,0.4,15,11.9,10.4,20.1
	c-2,3.6-5.6,5-9.2,5.9c-3.1,0.3-6.1,0.4-9.3,0.4c-22.5-0.1-45.1,0.3-67.6-0.1c-2.8-0.2-6.3-0.7-8.3-2.9
	C341.8,618.3,345.2,606.6,358,604.7z"/>
<path class="st3" d="M358.9,552.8c6.2-0.2,12.9-0.1,19.1,0c18.7,0.2,37.5-0.3,56.2,0.3c15.6,0.4,16.8,23.8,0.3,26.1l-50.8,0
	c-8.7,0-17,0.1-25.9-0.3c-11-0.5-15.7-12.9-9.4-21.3C350.9,554.2,354.9,553.2,358.9,552.8z"/>
<path class="st1" d="M137.4,489.9l1.5,0c13-0.1,26.1-0.1,39.1,0c26.3,0.2,44.8-0.8,65.9,19.4c14.4,13.7,19.9,32,20.1,51.6l0.1,41.1
	c0.1,27.4,2.1,48.8-19.3,70.3c-18.3,18.3-33.8,20.6-58,20.7l-39.6-0.1c-25.7-0.1-45,1.4-65.5-18c-14.3-13.5-20.4-31-20.4-50.4
	c0-13.7-0.1-27.7,0-41.5c0.2-27.6-2.7-50.1,18.2-71.6c10.7-11,22.9-17.8,38.3-20.5C123.2,489.8,131.8,489.9,137.4,489.9z"/>
<path class="st3" d="M192.3,548.2c18.9,0.2,15.6,19.6,3.5,27.3c-2.5,1.6-12.9,11.9-15,14.3l-0.5,0.5c7.2,6,23.4,19.9,25.6,29
	c1.4,5.7-6.1,14.1-11.5,13.6c-11-1.1-23.7-17.5-31.7-25.2c-6.3,6.3-18.6,19.1-25.9,23.5c-12,3.6-21.1-9.6-14.4-18.4
	c5.7-7.4,15.5-15.9,22.3-22.6c-4.4-4.8-9.1-9.3-13.7-13.9c-5.1-5.1-9-7.7-10.7-15c7-30.2,32.8,1.3,42.7,11.1
	C170.6,565.2,183.2,550.2,192.3,548.2z"/>
<path class="st4" d="M355.7,257.8c0,0,0.1,0,0.1,0c21.8-0.4,43.7,0,65.6-0.2c8.4-0.1,16.7-0.2,24.9,1.7c10.9,2.4,21,7.5,29.5,14.8
	c12.6,11.1,21.1,27,21.5,44c0.5,20.6,0,41.3,0.2,61.9c0.1,9.6,0.2,19-2.1,28.3c-2.5,9.8-7.4,18.9-14.2,26.4
	c-11.5,12.8-29.5,21.6-46.7,22.5c-20.3,0.7-41.2-0.4-61.7,0c-10.1,0.2-20.8,0.2-30.6-2.2c-10.1-2.5-19.4-7.3-27.2-14.1
	c-24.8-21.4-23.4-47.2-22.7-76.8c0.7-29.5-5.2-59.9,16.2-83.7C321.1,266.4,337.2,259.1,355.7,257.8z M384,370.5
	c-0.1,6.5-0.2,13-0.2,19.5c0,11.8-2.7,26.9,14.1,27.2c4.2-0.9,7.1-2.1,9.4-5.9c4.1-6.7,2.1-31.8,2.2-40.8c5.6,0,11.3,0.2,16.9,0.1
	c7.4-0.2,16.8,1.5,22.6-4.4c4.3-4.3,4.5-12.2,0.9-16.9c-4.7-6.2-13.1-5.5-20-5.4c-7,0.1-14,0.2-21,0.2c0.1-10.6,1.1-23.7-0.2-34.2
	c-0.7-6.1-7.1-10.8-13.5-10.7c-4,0.9-7,2.2-9.2,5.8c-4.1,6.5-2.3,30.8-2.2,39.1c-10.7-0.1-23.5-0.9-33.9,0.5
	c-14.3,1.9-13.4,23.8,0.7,25.4C361.4,371.3,373.4,370.6,384,370.5z"/>
<path class="st5" d="M395.4,299.2c6.5-0.1,12.8,4.5,13.5,10.7c1.2,10.5,0.3,23.6,0.2,34.2c7,0,14-0.1,21-0.2
	c6.9-0.1,15.3-0.7,20,5.4c3.5,4.7,3.3,12.7-0.9,16.9c-5.8,5.8-15.2,4.1-22.6,4.4c-5.6,0.1-11.3-0.1-16.9-0.1
	c-0.2,8.9,1.9,34-2.2,40.8c-2.3,3.8-5.2,5-9.4,5.9c-16.7-0.3-14-15.4-14.1-27.2c0-6.5,0.1-13,0.2-19.5c-10.6,0.1-22.6,0.8-33.2-0.5
	c-14.2-1.6-15-23.5-0.7-25.4c10.3-1.4,23.2-0.6,33.9-0.5c-0.1-8.3-1.9-32.6,2.2-39.1C388.4,301.4,391.4,300.1,395.4,299.2z"/>
<path class="st2" d="M126.6,257.9c14.9-0.1,29.7-0.2,44.6-0.1c12.6,0,32-0.7,43.6,2.2c9.4,2.4,18.2,7,25.6,13.3
	c31.2,26.3,22.2,61.8,23.6,97.8c0.9,23.7,0.4,44.3-16,63.2c-13.2,15.3-28,21.9-48.1,23.4c-21.1,0.3-42.2-0.2-63.3,0.1
	c-8.2,0.1-16.1,0.1-24.1-1.8c-10.9-2.6-21-7.8-29.4-15.3c-13.1-11.8-20.5-28.1-21-45.7c-0.5-19.8-0.1-39.7-0.3-59.5
	c-0.1-9.8-0.3-18.9,2.1-28.5c2.6-10.2,7.6-19.5,14.7-27.3C91.7,265.2,107.5,258.7,126.6,257.9z"/>
<path class="st3" d="M120.4,346.2c9.8-0.6,81.1-0.9,85.9,0.4c3.2,0.9,5.9,3.7,7.4,6.6c1.6,3.1,2,6.6,0.9,10
	c-1.5,4.2-4.8,6.5-8.7,8.3c-14.1,1.6-34.5,0.2-49.3,0.6c-10.4,0.3-27,0.4-37.5-0.9c-2.5-0.8-5.5-3.5-6.4-5.8
	C109,356.2,112.3,350.2,120.4,346.2z"/>
</svg>
